<?xml version="1.0" encoding="UTF-8"?>
<svg xmlns="http://www.w3.org/2000/svg"
     viewBox="0 0 1024 1024"
     width="512" height="512"
     role="img" aria-labelledby="title desc">
  <title id="title">City Building Logo</title>
  <desc id="desc">Stylized cluster of high-rise buildings with a curved base, navy and light gray palette.</desc>

  <!-- background transparent, main group centered -->
  <g transform="translate(0,40)">

    <!-- curved base -->
    <path d="M128 760 C300 820, 724 820, 896 760 L896 732 C724 792, 300 792, 128 732 Z"
          fill="#e6ebef"/>

    <!-- dark under-base (shadow) -->
    <path d="M136 748 C300 802, 724 802, 888 748 L888 738 C724 794, 300 794, 136 738 Z"
          fill="#0b2433" opacity="0.9"/>

    <!-- left-mid building -->
    <g transform="translate(170,120)">
      <!-- body -->
      <rect x="0" y="220" width="140" height="430" rx="6" fill="#0b2b3a"/>
      <!-- facade stripes -->
      <g fill="#d6dde4">
        <rect x="16" y="250" width="18" height="28" rx="2"/>
        <rect x="16" y="294" width="18" height="28" rx="2"/>
        <rect x="16" y="338" width="18" height="28" rx="2"/>
        <rect x="16" y="382" width="18" height="28" rx="2"/>
        <rect x="16" y="426" width="18" height="28" rx="2"/>
        <rect x="16" y="470" width="18" height="28" rx="2"/>
        <rect x="16" y="514" width="18" height="28" rx="2"/>
        <rect x="16" y="558" width="18" height="28" rx="2"/>
      </g>
      <!-- right vertical window strip -->
      <rect x="52" y="240" width="46" height="380" rx="3" fill="#12364a"/>
      <g fill="#d6dde4">
        <rect x="62" y="260" width="26" height="18" rx="2"/>
        <rect x="62" y="292" width="26" height="18" rx="2"/>
        <rect x="62" y="324" width="26" height="18" rx="2"/>
        <rect x="62" y="356" width="26" height="18" rx="2"/>
        <rect x="62" y="388" width="26" height="18" rx="2"/>
        <rect x="62" y="420" width="26" height="18" rx="2"/>
        <rect x="62" y="452" width="26" height="18" rx="2"/>
        <rect x="62" y="484" width="26" height="18" rx="2"/>
      </g>
      <!-- roof highlight -->
      <polygon points="-4,220 70,170 146,220" fill="#ced7df"/>
    </g>

    <!-- center (tallest) building -->
    <g transform="translate(380,40)">
      <!-- body -->
      <rect x="0" y="80" width="180" height="650" rx="6" fill="#0b2b3a"/>
      <!-- tall central vertical highlight -->
      <rect x="34" y="100" width="28" height="610" rx="2" fill="#d6dde4"/>
      <rect x="78" y="100" width="28" height="610" rx="2" fill="#12364a"/>
      <rect x="122" y="100" width="28" height="610" rx="2" fill="#0b2b3a"/>
      <!-- left window stripes -->
      <g fill="#cfd8df">
        <rect x="12" y="140" width="22" height="18" rx="2"/>
        <rect x="12" y="180" width="22" height="18" rx="2"/>
        <rect x="12" y="220" width="22" height="18" rx="2"/>
        <rect x="12" y="260" width="22" height="18" rx="2"/>
        <rect x="12" y="300" width="22" height="18" rx="2"/>
        <rect x="12" y="340" width="22" height="18" rx="2"/>
        <rect x="12" y="380" width="22" height="18" rx="2"/>
        <rect x="12" y="420" width="22" height="18" rx="2"/>
      </g>
      <!-- roof slant highlight -->
      <polygon points="-6,84 90,16 186,84" fill="#d6dde4"/>
    </g>

    <!-- right-mid building -->
    <g transform="translate(620,160)">
      <!-- body -->
      <rect x="0" y="140" width="120" height="530" rx="6" fill="#0b2b3a"/>
      <!-- horizontal stripes -->
      <g fill="#cfd8df">
        <rect x="18" y="170" width="84" height="16" rx="2"/>
        <rect x="18" y="206" width="84" height="16" rx="2"/>
        <rect x="18" y="242" width="84" height="16" rx="2"/>
        <rect x="18" y="278" width="84" height="16" rx="2"/>
        <rect x="18" y="314" width="84" height="16" rx="2"/>
        <rect x="18" y="350" width="84" height="16" rx="2"/>
        <rect x="18" y="386" width="84" height="16" rx="2"/>
        <rect x="18" y="422" width="84" height="16" rx="2"/>
        <rect x="18" y="458" width="84" height="16" rx="2"/>
        <rect x="18" y="494" width="84" height="16" rx="2"/>
      </g>
      <!-- right thin accent shape -->
      <rect x="96" y="140" width="18" height="530" rx="2" fill="#12364a"/>
      <!-- roof highlight -->
      <polygon points="-6,140 60,94 126,140" fill="#d6dde4"/>
    </g>

    <!-- small right building/house -->
    <g transform="translate(540,300)">
      <rect x="0" y="260" width="64" height="320" rx="4" fill="#12364a"/>
      <polygon points="-2,260 32,220 66,260" fill="#d6dde4"/>
      <g fill="#d6dde4">
        <rect x="18" y="300" width="28" height="28" rx="2"/>
        <rect x="18" y="342" width="28" height="28" rx="2"/>
        <rect x="18" y="384" width="28" height="28" rx="2"/>
      </g>
    </g>

    <!-- left side small vertical accents -->
    <g transform="translate(104,260)">
      <path d="M0 180 L18 120 L28 120 L10 180 Z" fill="#0b2b3a"/>
      <path d="M40 180 L58 120 L68 120 L50 180 Z" fill="#0b2b3a"/>
      <path d="M0 180 L8 220 L60 220 L52 180 Z" fill="#d6dde4" opacity="0.06"/>
    </g>

    <!-- final outline subtle stroke (keeps logo crisp on dark backgrounds) -->
    <g fill="none" stroke="#dfe7ee" stroke-opacity="0.08" stroke-width="2">
      <path d="M128 760 C300 820, 724 820, 896 760"/>
      <rect x="170" y="120" width="140" height="430" rx="6"/>
      <rect x="380" y="40" width="180" height="650" rx="6"/>
      <rect x="620" y="160" width="120" height="530" rx="6"/>
    </g>
  </g>
</svg>
